<mxfile host="Electron" modified="2023-09-05T19:28:33.037Z" agent="Mozilla/5.0 (Windows NT 10.0; Win64; x64) AppleWebKit/537.36 (KHTML, like Gecko) draw.io/21.6.8 Chrome/114.0.5735.289 Electron/25.5.0 Safari/537.36" etag="_R2LQBQ2ipWIE5dLOGOA" version="21.6.8" type="device">
  <diagram name="Страница — 1" id="DvGwit2RotbHwNRNy4Aj">
    <mxGraphModel dx="1122" dy="793" grid="1" gridSize="10" guides="1" tooltips="1" connect="1" arrows="1" fold="1" page="1" pageScale="1" pageWidth="827" pageHeight="1169" math="0" shadow="0">
      <root>
        <mxCell id="0" />
        <mxCell id="1" parent="0" />
        <mxCell id="awtu7BCgNXhjJa6UgLH_-1" value="Начало" style="strokeWidth=2;html=1;shape=mxgraph.flowchart.start_1;whiteSpace=wrap;" parent="1" vertex="1">
          <mxGeometry x="337.5" y="40" width="83.33" height="50" as="geometry" />
        </mxCell>
        <mxCell id="T8vPkLghx9xihi4VNME7-16" style="edgeStyle=orthogonalEdgeStyle;rounded=0;orthogonalLoop=1;jettySize=auto;html=1;exitX=0.5;exitY=1;exitDx=0;exitDy=0;entryX=0.5;entryY=0;entryDx=0;entryDy=0;" edge="1" parent="1" source="T8vPkLghx9xihi4VNME7-3" target="T8vPkLghx9xihi4VNME7-15">
          <mxGeometry relative="1" as="geometry" />
        </mxCell>
        <mxCell id="T8vPkLghx9xihi4VNME7-3" value="Array[row, column]" style="shape=parallelogram;perimeter=parallelogramPerimeter;whiteSpace=wrap;html=1;fixedSize=1;" vertex="1" parent="1">
          <mxGeometry x="310" y="120" width="138.33" height="50" as="geometry" />
        </mxCell>
        <mxCell id="T8vPkLghx9xihi4VNME7-4" value="" style="edgeStyle=orthogonalEdgeStyle;rounded=0;orthogonalLoop=1;jettySize=auto;html=1;" edge="1" parent="1" source="awtu7BCgNXhjJa6UgLH_-1" target="T8vPkLghx9xihi4VNME7-3">
          <mxGeometry relative="1" as="geometry" />
        </mxCell>
        <mxCell id="T8vPkLghx9xihi4VNME7-6" value="Строка = № строки с наименьшей суммой элементов: {row + 1}." style="text;html=1;strokeColor=none;fillColor=none;align=center;verticalAlign=middle;whiteSpace=wrap;rounded=0;" vertex="1" parent="1">
          <mxGeometry x="50.000000000000014" y="685" width="360" height="30" as="geometry" />
        </mxCell>
        <mxCell id="T8vPkLghx9xihi4VNME7-22" style="edgeStyle=orthogonalEdgeStyle;rounded=0;orthogonalLoop=1;jettySize=auto;html=1;exitX=0.5;exitY=1;exitDx=0;exitDy=0;" edge="1" parent="1" source="T8vPkLghx9xihi4VNME7-26">
          <mxGeometry relative="1" as="geometry">
            <mxPoint x="380" y="200" as="targetPoint" />
            <mxPoint x="544" y="720" as="sourcePoint" />
            <Array as="points">
              <mxPoint x="544" y="710" />
              <mxPoint x="670" y="710" />
              <mxPoint x="670" y="200" />
            </Array>
          </mxGeometry>
        </mxCell>
        <mxCell id="T8vPkLghx9xihi4VNME7-27" style="edgeStyle=orthogonalEdgeStyle;rounded=0;orthogonalLoop=1;jettySize=auto;html=1;exitX=0.5;exitY=1;exitDx=0;exitDy=0;entryX=0.5;entryY=0;entryDx=0;entryDy=0;" edge="1" parent="1" source="T8vPkLghx9xihi4VNME7-7" target="T8vPkLghx9xihi4VNME7-26">
          <mxGeometry relative="1" as="geometry" />
        </mxCell>
        <mxCell id="T8vPkLghx9xihi4VNME7-7" value="sum = nextSum&lt;br&gt;row = i" style="rounded=1;whiteSpace=wrap;html=1;absoluteArcSize=1;arcSize=0;strokeWidth=2;" vertex="1" parent="1">
          <mxGeometry x="489.1600000000001" y="560" width="110" height="50" as="geometry" />
        </mxCell>
        <mxCell id="T8vPkLghx9xihi4VNME7-30" style="edgeStyle=orthogonalEdgeStyle;rounded=0;orthogonalLoop=1;jettySize=auto;html=1;entryX=0.5;entryY=0;entryDx=0;entryDy=0;entryPerimeter=0;exitX=0.504;exitY=0.904;exitDx=0;exitDy=0;exitPerimeter=0;" edge="1" parent="1" source="T8vPkLghx9xihi4VNME7-8" target="T8vPkLghx9xihi4VNME7-29">
          <mxGeometry relative="1" as="geometry">
            <mxPoint x="190" y="360" as="sourcePoint" />
          </mxGeometry>
        </mxCell>
        <mxCell id="T8vPkLghx9xihi4VNME7-8" value="Строка" style="shape=document;whiteSpace=wrap;html=1;boundedLbl=1;strokeWidth=2;" vertex="1" parent="1">
          <mxGeometry x="150" y="300" width="80" height="40" as="geometry" />
        </mxCell>
        <mxCell id="T8vPkLghx9xihi4VNME7-10" value="&lt;font style=&quot;font-size: 14px;&quot;&gt;Легенда:&lt;/font&gt;&lt;br&gt;&lt;br&gt;sum – наименьшая сумма&lt;br&gt;nextSum – накопитель&lt;br&gt;row – текущая строка с наименьшей суммой" style="text;html=1;strokeColor=none;fillColor=none;align=left;verticalAlign=middle;whiteSpace=wrap;rounded=0;" vertex="1" parent="1">
          <mxGeometry x="50" y="60" width="150" height="90" as="geometry" />
        </mxCell>
        <mxCell id="T8vPkLghx9xihi4VNME7-12" value="да" style="edgeStyle=orthogonalEdgeStyle;rounded=0;orthogonalLoop=1;jettySize=auto;html=1;exitX=0.5;exitY=1;exitDx=0;exitDy=0;entryX=0.5;entryY=0;entryDx=0;entryDy=0;" edge="1" parent="1" source="T8vPkLghx9xihi4VNME7-11" target="T8vPkLghx9xihi4VNME7-7">
          <mxGeometry relative="1" as="geometry" />
        </mxCell>
        <mxCell id="T8vPkLghx9xihi4VNME7-23" value="нет" style="edgeStyle=orthogonalEdgeStyle;rounded=0;orthogonalLoop=1;jettySize=auto;html=1;exitX=1;exitY=0.5;exitDx=0;exitDy=0;" edge="1" parent="1" source="T8vPkLghx9xihi4VNME7-11">
          <mxGeometry relative="1" as="geometry">
            <mxPoint x="670" y="485" as="targetPoint" />
          </mxGeometry>
        </mxCell>
        <mxCell id="T8vPkLghx9xihi4VNME7-11" value="sum &amp;gt; nextSum" style="rhombus;whiteSpace=wrap;html=1;strokeWidth=2;" vertex="1" parent="1">
          <mxGeometry x="474.1600000000001" y="450" width="140" height="70" as="geometry" />
        </mxCell>
        <mxCell id="T8vPkLghx9xihi4VNME7-19" style="edgeStyle=orthogonalEdgeStyle;rounded=0;orthogonalLoop=1;jettySize=auto;html=1;exitX=0.5;exitY=1;exitDx=0;exitDy=0;" edge="1" parent="1" source="T8vPkLghx9xihi4VNME7-24">
          <mxGeometry relative="1" as="geometry">
            <mxPoint x="380" y="350" as="targetPoint" />
            <mxPoint x="380" y="670" as="sourcePoint" />
            <Array as="points">
              <mxPoint x="379" y="650" />
              <mxPoint x="260" y="650" />
              <mxPoint x="260" y="350" />
            </Array>
          </mxGeometry>
        </mxCell>
        <mxCell id="T8vPkLghx9xihi4VNME7-25" style="edgeStyle=orthogonalEdgeStyle;rounded=0;orthogonalLoop=1;jettySize=auto;html=1;exitX=0.5;exitY=1;exitDx=0;exitDy=0;entryX=0.5;entryY=0;entryDx=0;entryDy=0;" edge="1" parent="1" source="T8vPkLghx9xihi4VNME7-13" target="T8vPkLghx9xihi4VNME7-24">
          <mxGeometry relative="1" as="geometry" />
        </mxCell>
        <mxCell id="T8vPkLghx9xihi4VNME7-13" value="nextSum += Array[i, j]" style="rounded=1;whiteSpace=wrap;html=1;absoluteArcSize=1;arcSize=0;strokeWidth=2;" vertex="1" parent="1">
          <mxGeometry x="312.49" y="510" width="133.34" height="40" as="geometry" />
        </mxCell>
        <mxCell id="T8vPkLghx9xihi4VNME7-18" value="да" style="edgeStyle=orthogonalEdgeStyle;rounded=0;orthogonalLoop=1;jettySize=auto;html=1;exitX=0.5;exitY=1;exitDx=0;exitDy=0;entryX=0.5;entryY=0;entryDx=0;entryDy=0;" edge="1" parent="1" source="T8vPkLghx9xihi4VNME7-14" target="T8vPkLghx9xihi4VNME7-13">
          <mxGeometry relative="1" as="geometry" />
        </mxCell>
        <mxCell id="T8vPkLghx9xihi4VNME7-21" value="нет" style="edgeStyle=orthogonalEdgeStyle;rounded=0;orthogonalLoop=1;jettySize=auto;html=1;exitX=1;exitY=0.5;exitDx=0;exitDy=0;entryX=0.5;entryY=0;entryDx=0;entryDy=0;" edge="1" parent="1" source="T8vPkLghx9xihi4VNME7-14" target="T8vPkLghx9xihi4VNME7-11">
          <mxGeometry x="-0.5478" relative="1" as="geometry">
            <mxPoint as="offset" />
          </mxGeometry>
        </mxCell>
        <mxCell id="T8vPkLghx9xihi4VNME7-14" value="j &amp;lt; Array.GetLength(1)" style="rhombus;whiteSpace=wrap;html=1;strokeWidth=2;" vertex="1" parent="1">
          <mxGeometry x="280" y="380" width="198.33" height="80" as="geometry" />
        </mxCell>
        <mxCell id="T8vPkLghx9xihi4VNME7-17" value="да" style="edgeStyle=orthogonalEdgeStyle;rounded=0;orthogonalLoop=1;jettySize=auto;html=1;exitX=0.5;exitY=1;exitDx=0;exitDy=0;entryX=0.5;entryY=0;entryDx=0;entryDy=0;" edge="1" parent="1" source="T8vPkLghx9xihi4VNME7-15" target="T8vPkLghx9xihi4VNME7-14">
          <mxGeometry x="-0.6" relative="1" as="geometry">
            <mxPoint as="offset" />
          </mxGeometry>
        </mxCell>
        <mxCell id="T8vPkLghx9xihi4VNME7-28" value="нет" style="edgeStyle=orthogonalEdgeStyle;rounded=0;orthogonalLoop=1;jettySize=auto;html=1;exitX=0;exitY=0.5;exitDx=0;exitDy=0;entryX=0.5;entryY=0;entryDx=0;entryDy=0;" edge="1" parent="1" source="T8vPkLghx9xihi4VNME7-15" target="T8vPkLghx9xihi4VNME7-8">
          <mxGeometry x="-0.6108" relative="1" as="geometry">
            <mxPoint as="offset" />
          </mxGeometry>
        </mxCell>
        <mxCell id="T8vPkLghx9xihi4VNME7-15" value="i &amp;lt; Array.GetLength(0)" style="rhombus;whiteSpace=wrap;html=1;strokeWidth=2;" vertex="1" parent="1">
          <mxGeometry x="284.16" y="230" width="190" height="80" as="geometry" />
        </mxCell>
        <mxCell id="T8vPkLghx9xihi4VNME7-24" value="j++" style="rounded=1;whiteSpace=wrap;html=1;absoluteArcSize=1;arcSize=0;strokeWidth=2;" vertex="1" parent="1">
          <mxGeometry x="348.74" y="585" width="60.84" height="35" as="geometry" />
        </mxCell>
        <mxCell id="T8vPkLghx9xihi4VNME7-26" value="i++" style="rounded=1;whiteSpace=wrap;html=1;absoluteArcSize=1;arcSize=0;strokeWidth=2;" vertex="1" parent="1">
          <mxGeometry x="513.74" y="650" width="60.84" height="35" as="geometry" />
        </mxCell>
        <mxCell id="T8vPkLghx9xihi4VNME7-29" value="Конец" style="strokeWidth=2;html=1;shape=mxgraph.flowchart.terminator;whiteSpace=wrap;" vertex="1" parent="1">
          <mxGeometry x="155" y="370" width="70" height="40" as="geometry" />
        </mxCell>
      </root>
    </mxGraphModel>
  </diagram>
</mxfile>
